# xmcd
#
# Track frame offsets: 
#        150
#        21264
#        40843
#        53199
#        65547
#        82021
#        94469
#        115686
#        132089
#        143877
#        161422
#        176720
#        199390
#        214811
#
# Disc length: 3149 seconds
#
# Revision: 0
# Processed by: cddbd v1.5.2PL0 Copyright (c) Steve Scherf et al.
# Submitted via: ExactAudioCopy v0.99pb4
#
DISCID=cd0c4b0e
DTITLE=Tudur Huws Jones - Dal i drio - Still Trying
DYEAR=1900
DGENRE=Cymraeg
TTITLE0=Angor - Anchor
TTITLE1=Dal i drio - Still Trying
TTITLE2=Magi Tudur
TTITLE3=Miliwn - A Million
TTITLE4=Perffaith - Perfect
TTITLE5=Banjoio
TTITLE6=Sbaen 1936 - Spain 1936
TTITLE7=Carped hud - Magic Carpet
TTITLE8=Isgoed
TTITLE9=Cau drws y ty - Closing The Door Of The House
TTITLE10=csam i Fachynlleth - From Wrexham To Machynlleth
TTITLE11=Os daw'nghariad - If My Love Comes By
TTITLE12=Mountain Jim
TTITLE13=Amser maith yn ôl - A Long Time Ago
EXTD=
EXTT0=
EXTT1=
EXTT2=
EXTT3=
EXTT4=
EXTT5=
EXTT6=
EXTT7=
EXTT8=
EXTT9=
EXTT10=
EXTT11=
EXTT12=
EXTT13=
PLAYORDER=
